<svg width="404" height="216" viewBox="0 0 404 216" fill="none" xmlns="http://www.w3.org/2000/svg">
<path fill-rule="evenodd" clip-rule="evenodd" d="M155.042 31L117.058 9.06992C105.349 2.31002 90.9238 2.31003 79.2154 9.06992L21.9212 42.1487C10.2127 48.9086 3 61.4014 3 74.9212V141.079C3 154.599 10.2127 167.091 21.9212 173.851L79.2154 206.93C90.9238 213.69 105.349 213.69 117.058 206.93L158.506 183H380.137C391.182 183 400.137 174.046 400.137 163V51C400.137 39.9543 391.182 31 380.137 31H155.042ZM128.137 38.3026L107.169 26.1971C101.58 22.97 94.6933 22.97 89.1038 26.1971L31.8096 59.2759C26.2201 62.503 22.7768 68.467 22.7768 74.9212V141.079C22.7768 147.533 26.2201 153.497 31.8096 156.724L89.1038 189.803C94.6933 193.03 101.58 193.03 107.169 189.803L128.137 177.697V38.3026Z" fill="#F7F8FD"/>
<path fill-rule="evenodd" clip-rule="evenodd" d="M155.846 28L118.558 6.47185C105.921 -0.823951 90.352 -0.823947 77.7154 6.47185L20.4212 39.5506C7.78452 46.8464 0 60.3296 0 74.9212V141.079C0 155.67 7.78453 169.154 20.4212 176.449L77.7154 209.528C90.3521 216.824 105.921 216.824 118.558 209.528L159.31 186H380.137C392.839 186 403.137 175.703 403.137 163V51C403.137 38.2975 392.839 28 380.137 28H155.846ZM158.506 183L117.058 206.93C105.349 213.69 90.9238 213.69 79.2154 206.93L21.9212 173.851C10.2127 167.091 3 154.599 3 141.079V74.9212C3 61.4014 10.2127 48.9086 21.9212 42.1487L79.2154 9.06993C90.9238 2.31003 105.349 2.31002 117.058 9.06992L155.042 31H380.137C391.182 31 400.137 39.9543 400.137 51V163C400.137 174.046 391.182 183 380.137 183H158.506ZM125.137 40.0347L105.669 28.7952C101.008 26.104 95.2651 26.104 90.6038 28.7952L33.3096 61.874C28.6483 64.5652 25.7768 69.5388 25.7768 74.9212V141.079C25.7768 146.461 28.6483 151.435 33.3096 154.126L90.6038 187.205C95.2651 189.896 101.008 189.896 105.669 187.205L125.137 175.965V40.0347ZM128.137 38.3026L107.169 26.1971C101.58 22.97 94.6933 22.97 89.1038 26.1971L31.8096 59.2759C26.2201 62.503 22.7768 68.467 22.7768 74.9212V141.079C22.7768 147.533 26.2201 153.497 31.8096 156.724L89.1038 189.803C94.6933 193.03 101.58 193.03 107.169 189.803L128.137 177.697V38.3026Z" fill="#ECEFF8"/>
<path d="M88.4279 19.6151C94.4357 16.1283 101.838 16.1283 107.846 19.6151L169.428 55.3555C175.436 58.8422 179.137 65.2861 179.137 72.2596V143.74C179.137 150.714 175.436 157.158 169.428 160.645L107.846 196.385C101.838 199.872 94.4357 199.872 88.4279 196.385L26.8456 160.645C20.8377 157.158 17.1367 150.714 17.1367 143.74V72.2596C17.1367 65.2861 20.8377 58.8422 26.8456 55.3555L88.4279 19.6151Z" fill="#F7F8FD"/>
<path d="M89.002 25.274C94.6546 22.0104 101.619 22.0104 107.271 25.274L165.212 58.726C170.865 61.9896 174.347 68.0208 174.347 74.5479V141.452C174.347 147.979 170.865 154.01 165.212 157.274L107.271 190.726C101.619 193.99 94.6546 193.99 89.002 190.726L31.0612 157.274C25.4086 154.01 21.9265 147.979 21.9265 141.452V74.5479C21.9265 68.0208 25.4086 61.9896 31.0612 58.726L89.002 25.274Z" fill="#602ECC"/>
<path d="M98.7353 122.531C98.487 123.12 98.3317 123.472 98.1972 123.834C94.6375 133.264 91.0881 142.695 87.5284 152.115C86.566 154.649 84.4656 156.035 81.7958 155.962C79.3537 155.9 77.3358 154.421 76.5493 152.136C76.063 150.73 76.2491 149.365 76.7044 147.979C78.9293 141.175 81.3197 134.412 83.2859 127.536C85.9763 118.146 87.0939 108.498 87.1042 98.7262C87.1042 96.6787 86.6283 96.0893 84.6311 95.6447C77.0047 93.9281 69.3781 92.2116 61.7517 90.5054C59.9511 90.1021 58.5024 89.2438 57.6642 87.5686C55.9672 84.1871 58.5748 80.1749 62.4863 80.3921C65.063 80.5265 67.6191 81.1056 70.175 81.4675C78.1533 82.605 86.0591 84.2285 94.1409 84.5904C101.54 84.9213 108.876 84.3836 116.182 83.2151C122.101 82.2741 128.02 81.3435 133.95 80.4231C137.075 79.9371 139.776 81.7261 140.262 84.5491C140.738 87.3307 138.906 89.7815 135.781 90.4847C128.155 92.2116 120.538 93.9178 112.912 95.6343C110.822 96.0997 110.387 96.6581 110.377 98.7882C110.294 113.307 113.399 127.225 118.262 140.823C119.131 143.264 119.98 145.715 120.828 148.155C121.956 151.412 120.611 154.494 117.579 155.611C114.454 156.769 111.163 155.269 109.963 152.095C106.393 142.674 102.844 133.244 99.2838 123.813C99.1389 123.461 98.9837 123.11 98.7353 122.531Z" fill="white"/>
<path d="M98.7243 60.0001C104.292 59.9794 108.772 64.4155 108.824 69.9892C108.876 75.5835 104.354 80.1542 98.7658 80.1645C93.1882 80.1749 88.6247 75.6042 88.6558 70.0305C88.6765 64.4569 93.1468 60.0208 98.7243 60.0001Z" fill="white"/>
<path d="M203.626 70.944H210.934L221.56 99H214.336L212.656 94.002H201.904L200.224 99H193L203.626 70.944ZM203.71 88.626H210.85L207.238 77.958L203.71 88.626ZM223.282 78.168H229.666V89.088C229.666 89.844 229.68 90.558 229.708 91.23C229.764 91.874 229.89 92.448 230.086 92.952C230.31 93.428 230.632 93.82 231.052 94.128C231.472 94.408 232.074 94.548 232.858 94.548C234.202 94.548 235.154 94.128 235.714 93.288C236.274 92.448 236.554 91.062 236.554 89.13V78.168H242.98V99H237.436L236.554 96.06C235.938 97.096 235.168 97.936 234.244 98.58C233.348 99.196 232.102 99.504 230.506 99.504C229.134 99.504 227.972 99.308 227.02 98.916C226.096 98.524 225.354 97.964 224.794 97.236C224.262 96.48 223.87 95.556 223.618 94.464C223.394 93.372 223.282 92.112 223.282 90.684V78.168ZM255.761 77.58C256.321 77.58 256.909 77.65 257.525 77.79C258.141 77.93 258.729 78.154 259.289 78.462C259.849 78.742 260.367 79.092 260.843 79.512C261.347 79.932 261.767 80.436 262.103 81.024V70.944H268.487V90.852C268.487 91.916 268.529 93.162 268.613 94.59C268.697 95.99 268.893 97.46 269.201 99H263.111L262.271 96.186C261.375 97.39 260.353 98.244 259.205 98.748C258.057 99.252 256.909 99.504 255.761 99.504C254.417 99.504 253.185 99.252 252.065 98.748C250.945 98.216 249.965 97.474 249.125 96.522C248.313 95.542 247.683 94.38 247.235 93.036C246.787 91.664 246.563 90.124 246.563 88.416C246.563 86.708 246.787 85.182 247.235 83.838C247.683 82.494 248.313 81.36 249.125 80.436C249.965 79.512 250.945 78.812 252.065 78.336C253.185 77.832 254.417 77.58 255.761 77.58ZM257.819 94.548C258.435 94.548 259.023 94.436 259.583 94.212C260.143 93.988 260.633 93.638 261.053 93.162C261.473 92.686 261.795 92.07 262.019 91.314C262.271 90.558 262.397 89.634 262.397 88.542C262.397 87.478 262.271 86.568 262.019 85.812C261.795 85.056 261.473 84.44 261.053 83.964C260.633 83.46 260.143 83.096 259.583 82.872C259.023 82.648 258.435 82.536 257.819 82.536C256.559 82.536 255.467 83.04 254.543 84.048C253.647 85.028 253.199 86.484 253.199 88.416C253.199 90.348 253.647 91.86 254.543 92.952C255.467 94.016 256.559 94.548 257.819 94.548ZM275.405 70.944C275.405 69.88 275.769 68.984 276.497 68.256C277.225 67.528 278.121 67.164 279.185 67.164C280.249 67.164 281.145 67.528 281.873 68.256C282.601 68.984 282.965 69.88 282.965 70.944C282.965 71.98 282.601 72.876 281.873 73.632C281.145 74.36 280.249 74.724 279.185 74.724C278.121 74.724 277.225 74.36 276.497 73.632C275.769 72.876 275.405 71.98 275.405 70.944ZM272.003 78.168H282.377V99H275.951V83.04H272.003V78.168ZM285.671 88.5C285.671 86.624 285.965 85 286.553 83.628C287.169 82.256 287.981 81.122 288.989 80.226C290.025 79.33 291.201 78.672 292.517 78.252C293.861 77.804 295.261 77.58 296.717 77.58C298.145 77.58 299.517 77.804 300.833 78.252C302.177 78.672 303.353 79.33 304.361 80.226C305.369 81.122 306.181 82.256 306.797 83.628C307.413 85 307.721 86.624 307.721 88.5C307.721 90.376 307.413 92.014 306.797 93.414C306.181 94.786 305.369 95.92 304.361 96.816C303.353 97.712 302.177 98.384 300.833 98.832C299.517 99.28 298.145 99.504 296.717 99.504C295.261 99.504 293.861 99.28 292.517 98.832C291.201 98.384 290.025 97.712 288.989 96.816C287.981 95.92 287.169 94.786 286.553 93.414C285.965 92.014 285.671 90.376 285.671 88.5ZM296.717 94.548C298.005 94.548 299.069 94.086 299.909 93.162C300.777 92.238 301.211 90.684 301.211 88.5C301.211 87.408 301.085 86.484 300.833 85.728C300.609 84.944 300.287 84.328 299.867 83.88C299.475 83.404 298.999 83.068 298.439 82.872C297.907 82.648 297.333 82.536 296.717 82.536C296.101 82.536 295.513 82.648 294.953 82.872C294.393 83.068 293.903 83.404 293.483 83.88C293.091 84.328 292.769 84.944 292.517 85.728C292.293 86.484 292.181 87.408 292.181 88.5C292.181 90.684 292.601 92.238 293.441 93.162C294.309 94.086 295.401 94.548 296.717 94.548ZM311.007 70.944H332.595V76.782H317.643V81.654H326.757V87.492H317.643V93.162H332.595V99H311.007V70.944ZM333.942 78.168H340.788L344.862 91.188L348.852 78.168H355.698L347.718 99C347.214 100.316 346.71 101.408 346.206 102.276C345.73 103.144 345.156 103.83 344.484 104.334C343.84 104.866 343.056 105.23 342.132 105.426C341.208 105.65 340.074 105.762 338.73 105.762H336.672V101.142H337.932C338.604 101.142 339.15 101.128 339.57 101.1C339.99 101.072 340.326 101.002 340.578 100.89C340.858 100.778 341.068 100.596 341.208 100.344C341.376 100.12 341.544 99.812 341.712 99.42L341.922 98.874L333.942 78.168ZM356.698 88.458C356.698 86.806 356.992 85.308 357.58 83.964C358.168 82.62 358.966 81.472 359.974 80.52C361.01 79.568 362.2 78.84 363.544 78.336C364.916 77.832 366.358 77.58 367.87 77.58C369.578 77.58 371.118 77.902 372.49 78.546C373.862 79.162 375.01 80.03 375.934 81.15C376.858 82.242 377.544 83.558 377.992 85.098C378.468 86.638 378.65 88.332 378.538 90.18H363.124C363.18 90.908 363.348 91.552 363.628 92.112C363.936 92.644 364.3 93.092 364.72 93.456C365.168 93.82 365.672 94.1 366.232 94.296C366.792 94.464 367.366 94.548 367.954 94.548C368.934 94.548 369.774 94.408 370.474 94.128C371.202 93.848 371.762 93.47 372.154 92.994L377.236 94.842C376.144 96.438 374.772 97.614 373.12 98.37C371.496 99.126 369.83 99.504 368.122 99.504C366.442 99.504 364.902 99.252 363.502 98.748C362.102 98.244 360.898 97.516 359.89 96.564C358.882 95.612 358.098 94.45 357.538 93.078C356.978 91.706 356.698 90.166 356.698 88.458ZM363.124 86.4H372.616C372.56 85.056 372.098 84.048 371.23 83.376C370.362 82.676 369.298 82.326 368.038 82.326C366.834 82.326 365.756 82.648 364.804 83.292C363.88 83.936 363.32 84.972 363.124 86.4ZM193.42 114.944H218.074V120.782H209.044V143H202.45V120.782H193.42V114.944ZM223.893 122.168L225.027 125.99C225.671 124.31 226.553 123.134 227.673 122.462C228.793 121.79 230.151 121.496 231.747 121.58V127.964C231.411 127.908 231.117 127.88 230.865 127.88C230.613 127.852 230.333 127.838 230.025 127.838C228.457 127.838 227.267 128.202 226.455 128.93C225.643 129.63 225.237 130.82 225.237 132.5V143H218.853V122.168H223.893ZM234.899 122.168H241.283V133.088C241.283 133.844 241.297 134.558 241.325 135.23C241.381 135.874 241.507 136.448 241.703 136.952C241.927 137.428 242.249 137.82 242.669 138.128C243.089 138.408 243.691 138.548 244.475 138.548C245.819 138.548 246.771 138.128 247.331 137.288C247.891 136.448 248.171 135.062 248.171 133.13V122.168H254.597V143H249.053L248.171 140.06C247.555 141.096 246.785 141.936 245.861 142.58C244.965 143.196 243.719 143.504 242.123 143.504C240.751 143.504 239.589 143.308 238.637 142.916C237.713 142.524 236.971 141.964 236.411 141.236C235.879 140.48 235.487 139.556 235.235 138.464C235.011 137.372 234.899 136.112 234.899 134.684V122.168ZM263.473 136.238C263.781 137.134 264.369 137.792 265.237 138.212C266.133 138.632 267.183 138.842 268.387 138.842C269.423 138.842 270.333 138.688 271.117 138.38C271.929 138.044 272.335 137.554 272.335 136.91C272.335 136.462 272.097 136.098 271.621 135.818C271.145 135.51 270.305 135.244 269.101 135.02L265.363 134.39C263.347 134.054 261.709 133.382 260.449 132.374C259.189 131.338 258.559 129.938 258.559 128.174C258.559 127.082 258.811 126.13 259.315 125.318C259.847 124.478 260.547 123.792 261.415 123.26C262.283 122.7 263.291 122.28 264.439 122C265.615 121.72 266.847 121.58 268.135 121.58C269.143 121.58 270.109 121.664 271.033 121.832C271.985 122 272.867 122.28 273.679 122.672C274.491 123.036 275.205 123.512 275.821 124.1C276.465 124.688 276.983 125.388 277.375 126.2L271.999 128.174C271.775 127.418 271.299 126.914 270.571 126.662C269.871 126.382 269.045 126.242 268.093 126.242C265.797 126.242 264.649 126.802 264.649 127.922C264.649 128.342 264.845 128.692 265.237 128.972C265.629 129.224 266.287 129.434 267.211 129.602L271.075 130.316C273.595 130.764 275.457 131.422 276.661 132.29C277.865 133.158 278.467 134.46 278.467 136.196C278.467 137.428 278.187 138.506 277.627 139.43C277.095 140.326 276.367 141.082 275.443 141.698C274.519 142.314 273.441 142.762 272.209 143.042C270.977 143.35 269.661 143.504 268.261 143.504C265.797 143.504 263.683 143.07 261.919 142.202C260.155 141.306 258.867 139.976 258.055 138.212L263.473 136.238ZM280.574 122.168H284.018V116.96H290.402V122.168H294.938V127.04H290.402V135.44C290.402 136.42 290.584 137.064 290.948 137.372C291.34 137.652 292.054 137.792 293.09 137.792H294.938V143H290.906C289.618 143 288.54 142.93 287.672 142.79C286.804 142.622 286.09 142.328 285.53 141.908C284.998 141.488 284.606 140.9 284.354 140.144C284.13 139.36 284.018 138.352 284.018 137.12V127.04H280.574V122.168ZM297.37 132.458C297.37 130.806 297.664 129.308 298.252 127.964C298.84 126.62 299.638 125.472 300.646 124.52C301.682 123.568 302.872 122.84 304.216 122.336C305.588 121.832 307.03 121.58 308.542 121.58C310.25 121.58 311.79 121.902 313.162 122.546C314.534 123.162 315.682 124.03 316.606 125.15C317.53 126.242 318.216 127.558 318.664 129.098C319.14 130.638 319.322 132.332 319.21 134.18H303.796C303.852 134.908 304.02 135.552 304.3 136.112C304.608 136.644 304.972 137.092 305.392 137.456C305.84 137.82 306.344 138.1 306.904 138.296C307.464 138.464 308.038 138.548 308.626 138.548C309.606 138.548 310.446 138.408 311.146 138.128C311.874 137.848 312.434 137.47 312.826 136.994L317.908 138.842C316.816 140.438 315.444 141.614 313.792 142.37C312.168 143.126 310.502 143.504 308.794 143.504C307.114 143.504 305.574 143.252 304.174 142.748C302.774 142.244 301.57 141.516 300.562 140.564C299.554 139.612 298.77 138.45 298.21 137.078C297.65 135.706 297.37 134.166 297.37 132.458ZM303.796 130.4H313.288C313.232 129.056 312.77 128.048 311.902 127.376C311.034 126.676 309.97 126.326 308.71 126.326C307.506 126.326 306.428 126.648 305.476 127.292C304.552 127.936 303.992 128.972 303.796 130.4ZM330.777 121.58C331.337 121.58 331.925 121.65 332.541 121.79C333.157 121.93 333.745 122.154 334.305 122.462C334.865 122.742 335.383 123.092 335.859 123.512C336.363 123.932 336.783 124.436 337.119 125.024V114.944H343.503V134.852C343.503 135.916 343.545 137.162 343.629 138.59C343.713 139.99 343.909 141.46 344.217 143H338.127L337.287 140.186C336.391 141.39 335.369 142.244 334.221 142.748C333.073 143.252 331.925 143.504 330.777 143.504C329.433 143.504 328.201 143.252 327.081 142.748C325.961 142.216 324.981 141.474 324.141 140.522C323.329 139.542 322.699 138.38 322.251 137.036C321.803 135.664 321.579 134.124 321.579 132.416C321.579 130.708 321.803 129.182 322.251 127.838C322.699 126.494 323.329 125.36 324.141 124.436C324.981 123.512 325.961 122.812 327.081 122.336C328.201 121.832 329.433 121.58 330.777 121.58ZM332.835 138.548C333.451 138.548 334.039 138.436 334.599 138.212C335.159 137.988 335.649 137.638 336.069 137.162C336.489 136.686 336.811 136.07 337.035 135.314C337.287 134.558 337.413 133.634 337.413 132.542C337.413 131.478 337.287 130.568 337.035 129.812C336.811 129.056 336.489 128.44 336.069 127.964C335.649 127.46 335.159 127.096 334.599 126.872C334.039 126.648 333.451 126.536 332.835 126.536C331.575 126.536 330.483 127.04 329.559 128.048C328.663 129.028 328.215 130.484 328.215 132.416C328.215 134.348 328.663 135.86 329.559 136.952C330.483 138.016 331.575 138.548 332.835 138.548Z" fill="#191D29"/>
</svg>
